<mxfile host="app.diagrams.net" agent="Mozilla/5.0 (Windows NT 10.0; Win64; x64; rv:133.0) Gecko/20100101 Firefox/133.0" version="26.0.4">
  <diagram name="Page-1" id="S95GHX4YMESGLlnkAUot">
    <mxGraphModel dx="8790" dy="4330" grid="1" gridSize="10" guides="1" tooltips="1" connect="1" arrows="1" fold="1" page="1" pageScale="1" pageWidth="850" pageHeight="1100" math="0" shadow="0">
      <root>
        <mxCell id="0" />
        <mxCell id="1" parent="0" />
        <mxCell id="JAY82V4Paj1b_C0Mo9QA-34" value="" style="rounded=1;whiteSpace=wrap;html=1;fillColor=none;dashed=1;dashPattern=8 8;strokeWidth=2;strokeColor=#b85450;" vertex="1" parent="1">
          <mxGeometry x="-320" y="40" width="2530" height="1610" as="geometry" />
        </mxCell>
        <mxCell id="ZzZaBGDb-GxE34rw_5dA-1" value="" style="rounded=0;whiteSpace=wrap;html=1;fillColor=none;" parent="1" vertex="1">
          <mxGeometry x="-390" y="17.5" width="2640" height="1682.5" as="geometry" />
        </mxCell>
        <mxCell id="TtBYMSN7_llTA4FbOhxJ-31" value="" style="line;strokeWidth=1;direction=south;html=1;" parent="1" vertex="1">
          <mxGeometry x="1715" y="320" width="10" height="1260" as="geometry" />
        </mxCell>
        <mxCell id="TtBYMSN7_llTA4FbOhxJ-34" value="" style="line;strokeWidth=1;direction=south;html=1;" parent="1" vertex="1">
          <mxGeometry x="2045" y="320" width="10.41" height="1260" as="geometry" />
        </mxCell>
        <mxCell id="TtBYMSN7_llTA4FbOhxJ-19" value="" style="line;strokeWidth=1;direction=south;html=1;" parent="1" vertex="1">
          <mxGeometry x="1080" y="320" width="10.41" height="1260" as="geometry" />
        </mxCell>
        <mxCell id="e10Qv0GbZiTSholtEu76-8" value="&lt;font style=&quot;font-size: 20px;&quot;&gt;Holder&lt;/font&gt;" style="shape=umlActor;verticalLabelPosition=bottom;verticalAlign=top;html=1;outlineConnect=0;" parent="1" vertex="1">
          <mxGeometry x="328.75" y="130" width="70" height="120" as="geometry" />
        </mxCell>
        <mxCell id="e10Qv0GbZiTSholtEu76-9" value="" style="endArrow=classic;startArrow=classic;html=1;rounded=0;strokeWidth=2;" parent="1" edge="1">
          <mxGeometry width="50" height="50" relative="1" as="geometry">
            <mxPoint x="400" y="194.62999999999988" as="sourcePoint" />
            <mxPoint x="640" y="194.63" as="targetPoint" />
          </mxGeometry>
        </mxCell>
        <mxCell id="e10Qv0GbZiTSholtEu76-10" value="" style="endArrow=classic;startArrow=classic;html=1;rounded=0;strokeWidth=2;" parent="1" edge="1">
          <mxGeometry width="50" height="50" relative="1" as="geometry">
            <mxPoint x="90" y="194.22999999999988" as="sourcePoint" />
            <mxPoint x="330" y="194.23" as="targetPoint" />
          </mxGeometry>
        </mxCell>
        <mxCell id="e10Qv0GbZiTSholtEu76-11" value="&lt;div&gt;&lt;font style=&quot;font-size: 20px;&quot;&gt;Verifier&lt;/font&gt;&lt;/div&gt;&lt;div&gt;&lt;font style=&quot;font-size: 20px;&quot;&gt;(Service Provider)&lt;/font&gt;&lt;/div&gt;" style="text;html=1;align=center;verticalAlign=middle;whiteSpace=wrap;rounded=0;" parent="1" vertex="1">
          <mxGeometry x="590" y="250" width="180" height="30" as="geometry" />
        </mxCell>
        <mxCell id="e10Qv0GbZiTSholtEu76-12" value="&lt;div&gt;&lt;font style=&quot;font-size: 20px;&quot;&gt;Issuer&lt;/font&gt;&lt;/div&gt;&lt;div&gt;&lt;font style=&quot;font-size: 20px;&quot;&gt;(Identity Provider)&lt;/font&gt;&lt;/div&gt;" style="text;html=1;align=center;verticalAlign=middle;whiteSpace=wrap;rounded=0;" parent="1" vertex="1">
          <mxGeometry x="-50" y="250" width="180" height="30" as="geometry" />
        </mxCell>
        <mxCell id="e10Qv0GbZiTSholtEu76-14" value="" style="shape=curlyBracket;whiteSpace=wrap;html=1;rounded=1;labelPosition=left;verticalLabelPosition=middle;align=right;verticalAlign=middle;rotation=-90;strokeWidth=2;" parent="1" vertex="1">
          <mxGeometry x="343.75" y="50" width="37.5" height="675" as="geometry" />
        </mxCell>
        <mxCell id="e10Qv0GbZiTSholtEu76-15" value="&lt;div&gt;&lt;font style=&quot;font-size: 20px;&quot;&gt;Repeat&lt;font&gt;&lt;br&gt;&lt;/font&gt;&lt;/font&gt;&lt;/div&gt;" style="text;html=1;align=center;verticalAlign=middle;whiteSpace=wrap;rounded=0;" parent="1" vertex="1">
          <mxGeometry x="-90.00000000000006" y="850" width="180" height="30" as="geometry" />
        </mxCell>
        <mxCell id="e10Qv0GbZiTSholtEu76-17" value="" style="shape=process;whiteSpace=wrap;html=1;backgroundOutline=1;fillColor=none;" parent="1" vertex="1">
          <mxGeometry x="655" y="170" width="50" height="50" as="geometry" />
        </mxCell>
        <mxCell id="e10Qv0GbZiTSholtEu76-18" value="" style="shape=process;whiteSpace=wrap;html=1;backgroundOutline=1;fillColor=none;" parent="1" vertex="1">
          <mxGeometry x="20" y="170" width="50" height="50" as="geometry" />
        </mxCell>
        <mxCell id="e10Qv0GbZiTSholtEu76-21" value="" style="endArrow=classic;html=1;rounded=0;exitX=0.1;exitY=0.5;exitDx=0;exitDy=0;exitPerimeter=0;strokeWidth=2;" parent="1" source="e10Qv0GbZiTSholtEu76-14" edge="1">
          <mxGeometry width="50" height="50" relative="1" as="geometry">
            <mxPoint x="160" y="450" as="sourcePoint" />
            <mxPoint x="363" y="440" as="targetPoint" />
          </mxGeometry>
        </mxCell>
        <mxCell id="e10Qv0GbZiTSholtEu76-23" value="" style="html=1;verticalLabelPosition=bottom;align=center;labelBackgroundColor=#ffffff;verticalAlign=top;strokeWidth=2;strokeColor=#000000;shadow=0;dashed=0;shape=mxgraph.ios7.icons.wallet;fillColor=none;" parent="1" vertex="1">
          <mxGeometry x="282.14" y="507.5" width="295.62" height="250" as="geometry" />
        </mxCell>
        <mxCell id="TtBYMSN7_llTA4FbOhxJ-2" value="&lt;div&gt;&lt;font style=&quot;font-size: 20px;&quot;&gt;Identifier 1&lt;br&gt;&lt;/font&gt;&lt;/div&gt;&lt;div&gt;&lt;font style=&quot;font-size: 20px;&quot;&gt;.&lt;/font&gt;&lt;/div&gt;&lt;div&gt;&lt;font style=&quot;font-size: 20px;&quot;&gt;.&lt;/font&gt;&lt;/div&gt;&lt;div&gt;&lt;font style=&quot;font-size: 20px;&quot;&gt;.&lt;br&gt;&lt;/font&gt;&lt;/div&gt;&lt;div&gt;&lt;font style=&quot;font-size: 20px;&quot;&gt;Identifier N&lt;br&gt;&lt;/font&gt;&lt;/div&gt;" style="text;html=1;align=center;verticalAlign=middle;whiteSpace=wrap;rounded=0;" parent="1" vertex="1">
          <mxGeometry x="437.76" y="607.5" width="120" height="80" as="geometry" />
        </mxCell>
        <mxCell id="TtBYMSN7_llTA4FbOhxJ-5" value="&lt;div&gt;&lt;br&gt;&lt;/div&gt;" style="html=1;verticalLabelPosition=bottom;align=center;labelBackgroundColor=#ffffff;verticalAlign=top;strokeWidth=2;strokeColor=#000000;shadow=0;dashed=0;shape=mxgraph.ios7.icons.wallet;fillColor=none;" parent="1" vertex="1">
          <mxGeometry x="-270" y="507.5" width="295.62" height="250" as="geometry" />
        </mxCell>
        <mxCell id="TtBYMSN7_llTA4FbOhxJ-7" value="&lt;div&gt;&lt;font style=&quot;font-size: 20px;&quot;&gt;Identifier 1&lt;br&gt;&lt;/font&gt;&lt;/div&gt;&lt;div&gt;&lt;font style=&quot;font-size: 20px;&quot;&gt;.&lt;/font&gt;&lt;/div&gt;&lt;div&gt;&lt;font style=&quot;font-size: 20px;&quot;&gt;.&lt;/font&gt;&lt;/div&gt;&lt;div&gt;&lt;font style=&quot;font-size: 20px;&quot;&gt;.&lt;br&gt;&lt;/font&gt;&lt;/div&gt;&lt;div&gt;&lt;font style=&quot;font-size: 20px;&quot;&gt;Identifier N&lt;br&gt;&lt;/font&gt;&lt;/div&gt;" style="text;html=1;align=center;verticalAlign=middle;whiteSpace=wrap;rounded=0;" parent="1" vertex="1">
          <mxGeometry x="-114.37999999999998" y="607.5" width="120" height="80" as="geometry" />
        </mxCell>
        <mxCell id="TtBYMSN7_llTA4FbOhxJ-23" value="&lt;font style=&quot;font-size: 20px;&quot;&gt;Holder&lt;/font&gt;" style="shape=umlActor;verticalLabelPosition=bottom;verticalAlign=top;html=1;outlineConnect=0;" parent="1" vertex="1">
          <mxGeometry x="1368.75" y="130" width="70" height="120" as="geometry" />
        </mxCell>
        <mxCell id="TtBYMSN7_llTA4FbOhxJ-26" value="&lt;div&gt;&lt;font style=&quot;font-size: 20px;&quot;&gt;Verifier&lt;/font&gt;&lt;/div&gt;&lt;div&gt;&lt;font style=&quot;font-size: 20px;&quot;&gt;(Service Provider)&lt;/font&gt;&lt;/div&gt;" style="text;html=1;align=center;verticalAlign=middle;whiteSpace=wrap;rounded=0;" parent="1" vertex="1">
          <mxGeometry x="1630" y="250" width="180" height="30" as="geometry" />
        </mxCell>
        <mxCell id="TtBYMSN7_llTA4FbOhxJ-27" value="&lt;div&gt;&lt;font style=&quot;font-size: 20px;&quot;&gt;Issuer&lt;/font&gt;&lt;/div&gt;&lt;div&gt;&lt;font style=&quot;font-size: 20px;&quot;&gt;(Identity Provider)&lt;/font&gt;&lt;/div&gt;" style="text;html=1;align=center;verticalAlign=middle;whiteSpace=wrap;rounded=0;" parent="1" vertex="1">
          <mxGeometry x="990" y="250" width="180" height="30" as="geometry" />
        </mxCell>
        <mxCell id="TtBYMSN7_llTA4FbOhxJ-28" value="" style="shape=process;whiteSpace=wrap;html=1;backgroundOutline=1;fillColor=none;" parent="1" vertex="1">
          <mxGeometry x="1695" y="170" width="50" height="50" as="geometry" />
        </mxCell>
        <mxCell id="TtBYMSN7_llTA4FbOhxJ-29" value="" style="shape=process;whiteSpace=wrap;html=1;backgroundOutline=1;fillColor=none;" parent="1" vertex="1">
          <mxGeometry x="1060" y="170" width="50" height="50" as="geometry" />
        </mxCell>
        <mxCell id="TtBYMSN7_llTA4FbOhxJ-30" value="" style="line;strokeWidth=1;direction=south;html=1;" parent="1" vertex="1">
          <mxGeometry x="1398.75" y="320" width="10" height="1260" as="geometry" />
        </mxCell>
        <mxCell id="TtBYMSN7_llTA4FbOhxJ-32" value="&lt;font style=&quot;font-size: 20px;&quot;&gt;RegisteringCA&lt;/font&gt;" style="text;html=1;align=center;verticalAlign=middle;whiteSpace=wrap;rounded=0;" parent="1" vertex="1">
          <mxGeometry x="1960" y="250" width="180" height="30" as="geometry" />
        </mxCell>
        <mxCell id="TtBYMSN7_llTA4FbOhxJ-33" value="" style="shape=process;whiteSpace=wrap;html=1;backgroundOutline=1;fillColor=none;" parent="1" vertex="1">
          <mxGeometry x="2025" y="170" width="50" height="50" as="geometry" />
        </mxCell>
        <mxCell id="TtBYMSN7_llTA4FbOhxJ-37" value="" style="endArrow=classic;startArrow=classic;html=1;rounded=0;strokeWidth=2;dashed=1;dashPattern=8 8;entryX=0.991;entryY=1.261;entryDx=0;entryDy=0;entryPerimeter=0;" parent="1" target="ZzZaBGDb-GxE34rw_5dA-15" edge="1">
          <mxGeometry width="50" height="50" relative="1" as="geometry">
            <mxPoint x="1730" y="506.39" as="sourcePoint" />
            <mxPoint x="2010" y="506.39" as="targetPoint" />
          </mxGeometry>
        </mxCell>
        <mxCell id="TtBYMSN7_llTA4FbOhxJ-38" value="" style="endArrow=classic;startArrow=classic;html=1;rounded=0;strokeWidth=2;dashed=1;dashPattern=8 8;" parent="1" edge="1">
          <mxGeometry width="50" height="50" relative="1" as="geometry">
            <mxPoint x="1408.75" y="440" as="sourcePoint" />
            <mxPoint x="2040" y="440" as="targetPoint" />
          </mxGeometry>
        </mxCell>
        <mxCell id="TtBYMSN7_llTA4FbOhxJ-39" value="" style="line;strokeWidth=8;direction=south;html=1;" parent="1" vertex="1">
          <mxGeometry x="1393.75" y="860" width="20" height="700" as="geometry" />
        </mxCell>
        <mxCell id="TtBYMSN7_llTA4FbOhxJ-40" value="" style="line;strokeWidth=8;direction=south;html=1;" parent="1" vertex="1">
          <mxGeometry x="1398.75" y="635" width="10" height="95" as="geometry" />
        </mxCell>
        <mxCell id="TtBYMSN7_llTA4FbOhxJ-41" value="" style="line;strokeWidth=8;direction=south;html=1;" parent="1" vertex="1">
          <mxGeometry x="1715" y="490" width="10" height="32.5" as="geometry" />
        </mxCell>
        <mxCell id="TtBYMSN7_llTA4FbOhxJ-42" value="" style="endArrow=classic;startArrow=classic;html=1;rounded=0;strokeWidth=2;" parent="1" edge="1">
          <mxGeometry width="50" height="50" relative="1" as="geometry">
            <mxPoint x="1413.75" y="647.08" as="sourcePoint" />
            <mxPoint x="1713.75" y="647.08" as="targetPoint" />
          </mxGeometry>
        </mxCell>
        <mxCell id="TtBYMSN7_llTA4FbOhxJ-44" value="" style="endArrow=classic;html=1;rounded=0;strokeWidth=2;" parent="1" edge="1">
          <mxGeometry width="50" height="50" relative="1" as="geometry">
            <mxPoint x="1413.75" y="720" as="sourcePoint" />
            <mxPoint x="1713.75" y="720" as="targetPoint" />
          </mxGeometry>
        </mxCell>
        <mxCell id="TtBYMSN7_llTA4FbOhxJ-45" value="" style="endArrow=classic;html=1;rounded=0;strokeWidth=2;" parent="1" edge="1">
          <mxGeometry width="50" height="50" relative="1" as="geometry">
            <mxPoint x="1713.75" y="870" as="sourcePoint" />
            <mxPoint x="1413.75" y="870" as="targetPoint" />
          </mxGeometry>
        </mxCell>
        <mxCell id="TtBYMSN7_llTA4FbOhxJ-43" value="" style="line;strokeWidth=8;direction=south;html=1;" parent="1" vertex="1">
          <mxGeometry x="1715" y="635" width="10" height="255" as="geometry" />
        </mxCell>
        <mxCell id="TtBYMSN7_llTA4FbOhxJ-47" value="" style="edgeStyle=elbowEdgeStyle;elbow=horizontal;endArrow=classic;html=1;curved=0;rounded=1;endSize=8;startSize=8;strokeWidth=2;" parent="1" edge="1">
          <mxGeometry width="50" height="50" relative="1" as="geometry">
            <mxPoint x="1735" y="725" as="sourcePoint" />
            <mxPoint x="1735" y="745" as="targetPoint" />
            <Array as="points">
              <mxPoint x="1775" y="735" />
            </Array>
          </mxGeometry>
        </mxCell>
        <mxCell id="TtBYMSN7_llTA4FbOhxJ-48" value="" style="edgeStyle=elbowEdgeStyle;elbow=horizontal;endArrow=classic;html=1;curved=0;rounded=1;endSize=8;startSize=8;strokeWidth=2;" parent="1" edge="1">
          <mxGeometry width="50" height="50" relative="1" as="geometry">
            <mxPoint x="1735" y="791.25" as="sourcePoint" />
            <mxPoint x="1735" y="811.25" as="targetPoint" />
            <Array as="points">
              <mxPoint x="1775" y="801.25" />
            </Array>
          </mxGeometry>
        </mxCell>
        <mxCell id="TtBYMSN7_llTA4FbOhxJ-49" value="" style="edgeStyle=elbowEdgeStyle;elbow=horizontal;endArrow=classic;html=1;curved=0;rounded=1;endSize=8;startSize=8;strokeWidth=2;" parent="1" edge="1">
          <mxGeometry width="50" height="50" relative="1" as="geometry">
            <mxPoint x="1420.63" y="950" as="sourcePoint" />
            <mxPoint x="1420.63" y="970" as="targetPoint" />
            <Array as="points">
              <mxPoint x="1460.63" y="960" />
            </Array>
          </mxGeometry>
        </mxCell>
        <mxCell id="TtBYMSN7_llTA4FbOhxJ-51" value="" style="endArrow=classic;startArrow=classic;html=1;rounded=0;strokeWidth=2;dashed=1;dashPattern=8 8;" parent="1" edge="1">
          <mxGeometry width="50" height="50" relative="1" as="geometry">
            <mxPoint x="1418.75" y="1070" as="sourcePoint" />
            <mxPoint x="2040" y="1070" as="targetPoint" />
          </mxGeometry>
        </mxCell>
        <mxCell id="TtBYMSN7_llTA4FbOhxJ-52" value="" style="line;strokeWidth=8;direction=south;html=1;" parent="1" vertex="1">
          <mxGeometry x="2045" y="1060" width="10" height="30" as="geometry" />
        </mxCell>
        <mxCell id="TtBYMSN7_llTA4FbOhxJ-53" value="" style="endArrow=classic;startArrow=classic;html=1;rounded=0;strokeWidth=2;" parent="1" edge="1">
          <mxGeometry width="50" height="50" relative="1" as="geometry">
            <mxPoint x="1095" y="1120.43" as="sourcePoint" />
            <mxPoint x="1387.5" y="1120" as="targetPoint" />
          </mxGeometry>
        </mxCell>
        <mxCell id="TtBYMSN7_llTA4FbOhxJ-54" value="" style="line;strokeWidth=8;direction=south;html=1;" parent="1" vertex="1">
          <mxGeometry x="1075" y="1100" width="20" height="190" as="geometry" />
        </mxCell>
        <mxCell id="TtBYMSN7_llTA4FbOhxJ-56" value="" style="endArrow=classic;html=1;rounded=0;strokeWidth=2;" parent="1" edge="1">
          <mxGeometry width="50" height="50" relative="1" as="geometry">
            <mxPoint x="1390" y="1200" as="sourcePoint" />
            <mxPoint x="1100" y="1200" as="targetPoint" />
          </mxGeometry>
        </mxCell>
        <mxCell id="TtBYMSN7_llTA4FbOhxJ-57" value="" style="endArrow=classic;html=1;rounded=0;strokeWidth=2;" parent="1" edge="1">
          <mxGeometry width="50" height="50" relative="1" as="geometry">
            <mxPoint x="1098.75" y="1270" as="sourcePoint" />
            <mxPoint x="1393.75" y="1270" as="targetPoint" />
          </mxGeometry>
        </mxCell>
        <mxCell id="TtBYMSN7_llTA4FbOhxJ-58" value="" style="edgeStyle=elbowEdgeStyle;elbow=horizontal;endArrow=classic;html=1;curved=0;rounded=1;endSize=8;startSize=8;strokeWidth=2;" parent="1" edge="1">
          <mxGeometry width="50" height="50" relative="1" as="geometry">
            <mxPoint x="1418.75" y="1310" as="sourcePoint" />
            <mxPoint x="1418.75" y="1330" as="targetPoint" />
            <Array as="points">
              <mxPoint x="1458.75" y="1320" />
            </Array>
          </mxGeometry>
        </mxCell>
        <mxCell id="TtBYMSN7_llTA4FbOhxJ-59" value="" style="edgeStyle=elbowEdgeStyle;elbow=horizontal;endArrow=classic;html=1;curved=0;rounded=1;endSize=8;startSize=8;strokeWidth=2;" parent="1" edge="1">
          <mxGeometry width="50" height="50" relative="1" as="geometry">
            <mxPoint x="1420.88" y="1370" as="sourcePoint" />
            <mxPoint x="1420.88" y="1390" as="targetPoint" />
            <Array as="points">
              <mxPoint x="1460.88" y="1380" />
            </Array>
          </mxGeometry>
        </mxCell>
        <mxCell id="TtBYMSN7_llTA4FbOhxJ-60" value="" style="endArrow=classic;startArrow=classic;html=1;rounded=0;strokeWidth=2;dashed=1;dashPattern=8 8;" parent="1" edge="1">
          <mxGeometry width="50" height="50" relative="1" as="geometry">
            <mxPoint x="1100" y="374.09" as="sourcePoint" />
            <mxPoint x="2040" y="374" as="targetPoint" />
          </mxGeometry>
        </mxCell>
        <mxCell id="TtBYMSN7_llTA4FbOhxJ-61" value="" style="line;strokeWidth=8;direction=south;html=1;" parent="1" vertex="1">
          <mxGeometry x="1080" y="353.75" width="10" height="40" as="geometry" />
        </mxCell>
        <mxCell id="TtBYMSN7_llTA4FbOhxJ-20" value="" style="line;strokeWidth=8;direction=south;html=1;" parent="1" vertex="1">
          <mxGeometry x="2045" y="353.75" width="10" height="166.25" as="geometry" />
        </mxCell>
        <mxCell id="TtBYMSN7_llTA4FbOhxJ-63" value="" style="line;strokeWidth=8;direction=south;html=1;" parent="1" vertex="1">
          <mxGeometry x="1398.75" y="427.5" width="10" height="30" as="geometry" />
        </mxCell>
        <mxCell id="TtBYMSN7_llTA4FbOhxJ-64" value="" style="endArrow=classic;html=1;rounded=0;strokeWidth=2;" parent="1" edge="1">
          <mxGeometry width="50" height="50" relative="1" as="geometry">
            <mxPoint x="1411.88" y="1470" as="sourcePoint" />
            <mxPoint x="1711.88" y="1470" as="targetPoint" />
          </mxGeometry>
        </mxCell>
        <mxCell id="TtBYMSN7_llTA4FbOhxJ-65" value="" style="line;strokeWidth=8;direction=south;html=1;" parent="1" vertex="1">
          <mxGeometry x="1710" y="1460" width="20" height="90" as="geometry" />
        </mxCell>
        <mxCell id="TtBYMSN7_llTA4FbOhxJ-66" value="" style="edgeStyle=elbowEdgeStyle;elbow=horizontal;endArrow=classic;html=1;curved=0;rounded=1;endSize=8;startSize=8;strokeWidth=2;" parent="1" edge="1">
          <mxGeometry width="50" height="50" relative="1" as="geometry">
            <mxPoint x="1730" y="1490" as="sourcePoint" />
            <mxPoint x="1730" y="1510" as="targetPoint" />
            <Array as="points">
              <mxPoint x="1770" y="1500" />
            </Array>
          </mxGeometry>
        </mxCell>
        <mxCell id="TtBYMSN7_llTA4FbOhxJ-67" value="" style="endArrow=classic;html=1;rounded=0;strokeWidth=2;" parent="1" edge="1">
          <mxGeometry width="50" height="50" relative="1" as="geometry">
            <mxPoint x="1711.88" y="1540" as="sourcePoint" />
            <mxPoint x="1411.88" y="1540" as="targetPoint" />
          </mxGeometry>
        </mxCell>
        <mxCell id="TtBYMSN7_llTA4FbOhxJ-69" value="&lt;div&gt;&lt;b&gt;&lt;font style=&quot;font-size: 25px;&quot;&gt;USER AND ROLE&lt;/font&gt;&lt;/b&gt;&lt;br&gt;&lt;/div&gt;" style="text;html=1;align=center;verticalAlign=middle;whiteSpace=wrap;rounded=0;" parent="1" vertex="1">
          <mxGeometry x="110" y="50" width="210" height="30" as="geometry" />
        </mxCell>
        <mxCell id="TtBYMSN7_llTA4FbOhxJ-70" value="&lt;div&gt;&lt;b&gt;&lt;font style=&quot;font-size: 25px;&quot;&gt;DATA FLOW&lt;/font&gt;&lt;/b&gt;&lt;br&gt;&lt;/div&gt;" style="text;html=1;align=center;verticalAlign=middle;whiteSpace=wrap;rounded=0;" parent="1" vertex="1">
          <mxGeometry x="1510" y="50" width="180" height="30" as="geometry" />
        </mxCell>
        <mxCell id="TtBYMSN7_llTA4FbOhxJ-71" value="" style="line;strokeWidth=1;direction=south;html=1;" parent="1" vertex="1">
          <mxGeometry x="895" y="17.5" width="10" height="1580" as="geometry" />
        </mxCell>
        <mxCell id="TtBYMSN7_llTA4FbOhxJ-80" style="edgeStyle=orthogonalEdgeStyle;rounded=1;orthogonalLoop=1;jettySize=auto;html=1;entryX=0.701;entryY=2;entryDx=0;entryDy=0;entryPerimeter=0;curved=0;strokeWidth=2;" parent="1" edge="1">
          <mxGeometry relative="1" as="geometry">
            <mxPoint x="-230" y="769.8299999999999" as="sourcePoint" />
            <mxPoint x="690" y="879.9999999999998" as="targetPoint" />
            <Array as="points">
              <mxPoint x="-230" y="879.8299999999999" />
            </Array>
          </mxGeometry>
        </mxCell>
        <mxCell id="TtBYMSN7_llTA4FbOhxJ-83" value="&lt;div&gt;&lt;font style=&quot;font-size: 20px;&quot;&gt;Creating an Identity&lt;br&gt;&lt;/font&gt;&lt;/div&gt;" style="text;html=1;align=center;verticalAlign=middle;whiteSpace=wrap;rounded=0;" parent="1" vertex="1">
          <mxGeometry x="272.19" y="358.75" width="180" height="30" as="geometry" />
        </mxCell>
        <mxCell id="TtBYMSN7_llTA4FbOhxJ-84" value="" style="edgeStyle=elbowEdgeStyle;elbow=vertical;endArrow=classic;html=1;curved=0;rounded=1;endSize=8;startSize=8;strokeWidth=2;" parent="1" edge="1">
          <mxGeometry width="50" height="50" relative="1" as="geometry">
            <mxPoint x="-7.859999999999999" y="527.5" as="sourcePoint" />
            <mxPoint x="22.14" y="527.5" as="targetPoint" />
            <Array as="points">
              <mxPoint x="12.14" y="477.5" />
            </Array>
          </mxGeometry>
        </mxCell>
        <mxCell id="TtBYMSN7_llTA4FbOhxJ-85" value="&lt;font style=&quot;font-size: 20px;&quot;&gt;Transfer Credentials and Identitfiers&lt;br&gt;&lt;/font&gt;" style="text;html=1;align=center;verticalAlign=middle;whiteSpace=wrap;rounded=0;" parent="1" vertex="1">
          <mxGeometry x="72.14" y="582.5" width="180" height="80" as="geometry" />
        </mxCell>
        <mxCell id="ZzZaBGDb-GxE34rw_5dA-4" value="" style="endArrow=classic;html=1;rounded=0;exitX=-0.001;exitY=0.633;exitDx=0;exitDy=0;exitPerimeter=0;entryX=1.015;entryY=0.633;entryDx=0;entryDy=0;entryPerimeter=0;" parent="1" source="e10Qv0GbZiTSholtEu76-23" target="TtBYMSN7_llTA4FbOhxJ-5" edge="1">
          <mxGeometry width="50" height="50" relative="1" as="geometry">
            <mxPoint x="312.14" y="657.5" as="sourcePoint" />
            <mxPoint x="362.14" y="607.5" as="targetPoint" />
          </mxGeometry>
        </mxCell>
        <mxCell id="ZzZaBGDb-GxE34rw_5dA-5" value="&lt;font style=&quot;font-size: 20px;&quot;&gt;Revoke / Recover&lt;/font&gt;" style="text;html=1;align=center;verticalAlign=middle;whiteSpace=wrap;rounded=0;" parent="1" vertex="1">
          <mxGeometry x="-57.85999999999997" y="432.5" width="180" height="30" as="geometry" />
        </mxCell>
        <mxCell id="ZzZaBGDb-GxE34rw_5dA-7" value="&lt;div align=&quot;center&quot;&gt;&lt;font style=&quot;font-size: 20px;&quot;&gt;Primary Wallet&lt;/font&gt;&lt;/div&gt;" style="text;whiteSpace=wrap;html=1;align=center;" parent="1" vertex="1">
          <mxGeometry x="290.89" y="457.5" width="160" height="40" as="geometry" />
        </mxCell>
        <mxCell id="ZzZaBGDb-GxE34rw_5dA-8" value="&lt;div align=&quot;center&quot;&gt;&lt;font style=&quot;font-size: 20px;&quot;&gt;Secondary Wallet&lt;/font&gt;&lt;/div&gt;" style="text;whiteSpace=wrap;html=1;align=center;" parent="1" vertex="1">
          <mxGeometry x="-267.86" y="457.5" width="190" height="40" as="geometry" />
        </mxCell>
        <mxCell id="ZzZaBGDb-GxE34rw_5dA-13" value="&lt;font style=&quot;font-size: 20px;&quot;&gt;A. Register Issuer, get certificate&lt;br&gt;&lt;/font&gt;" style="text;html=1;align=center;verticalAlign=middle;whiteSpace=wrap;rounded=0;" parent="1" vertex="1">
          <mxGeometry x="1413.75" y="340" width="300" height="33.75" as="geometry" />
        </mxCell>
        <mxCell id="ZzZaBGDb-GxE34rw_5dA-14" value="&lt;font style=&quot;font-size: 20px;&quot;&gt;B. Register Holder, get certificate&lt;br&gt;&lt;/font&gt;" style="text;html=1;align=center;verticalAlign=middle;whiteSpace=wrap;rounded=0;" parent="1" vertex="1">
          <mxGeometry x="1415" y="398.75" width="300" height="33.75" as="geometry" />
        </mxCell>
        <mxCell id="ZzZaBGDb-GxE34rw_5dA-15" value="&lt;font style=&quot;font-size: 20px;&quot;&gt;C. Register Verifier, get certificate&lt;br&gt;&lt;/font&gt;" style="text;html=1;align=center;verticalAlign=middle;whiteSpace=wrap;rounded=0;" parent="1" vertex="1">
          <mxGeometry x="1730" y="462.5" width="310" height="33.75" as="geometry" />
        </mxCell>
        <mxCell id="ZzZaBGDb-GxE34rw_5dA-17" value="&lt;font style=&quot;font-size: 20px;&quot;&gt;DID connection&lt;/font&gt;" style="text;html=1;align=center;verticalAlign=middle;whiteSpace=wrap;rounded=0;" parent="1" vertex="1">
          <mxGeometry x="1418.75" y="607.5" width="266.25" height="33.75" as="geometry" />
        </mxCell>
        <mxCell id="ZzZaBGDb-GxE34rw_5dA-18" value="&lt;font style=&quot;font-size: 20px;&quot;&gt;Request the service&lt;/font&gt;" style="text;html=1;align=center;verticalAlign=middle;whiteSpace=wrap;rounded=0;" parent="1" vertex="1">
          <mxGeometry x="1423.75" y="680" width="266.25" height="33.75" as="geometry" />
        </mxCell>
        <mxCell id="ZzZaBGDb-GxE34rw_5dA-19" value="&lt;font style=&quot;font-size: 20px;&quot;&gt;Prepare attribute request&lt;br&gt;&lt;/font&gt;" style="text;html=1;align=left;verticalAlign=middle;whiteSpace=wrap;rounded=0;" parent="1" vertex="1">
          <mxGeometry x="1790" y="711.25" width="160" height="46.25" as="geometry" />
        </mxCell>
        <mxCell id="ZzZaBGDb-GxE34rw_5dA-20" value="&lt;font style=&quot;font-size: 20px;&quot;&gt;Sign request using Verifier Private Key&lt;font&gt;&lt;br&gt;&lt;/font&gt;&lt;/font&gt;" style="text;html=1;align=left;verticalAlign=middle;whiteSpace=wrap;rounded=0;" parent="1" vertex="1">
          <mxGeometry x="1790" y="780" width="200" height="46.25" as="geometry" />
        </mxCell>
        <mxCell id="ZzZaBGDb-GxE34rw_5dA-21" value="&lt;font style=&quot;font-size: 20px;&quot;&gt;Return assertion (credential)&lt;br&gt;&lt;/font&gt;" style="text;html=1;align=center;verticalAlign=middle;whiteSpace=wrap;rounded=0;" parent="1" vertex="1">
          <mxGeometry x="1110" y="1230" width="266.25" height="33.75" as="geometry" />
        </mxCell>
        <mxCell id="ZzZaBGDb-GxE34rw_5dA-25" value="&lt;font style=&quot;font-size: 20px;&quot;&gt;Verify the signature using the Verifier&#39;s Public Key&lt;br&gt;&lt;/font&gt;" style="text;html=1;align=left;verticalAlign=middle;whiteSpace=wrap;rounded=0;" parent="1" vertex="1">
          <mxGeometry x="1480" y="930" width="200" height="66.25" as="geometry" />
        </mxCell>
        <mxCell id="ZzZaBGDb-GxE34rw_5dA-26" value="&lt;font style=&quot;font-size: 20px;&quot;&gt;D. Validate the Verifier certificate&lt;br&gt;&lt;/font&gt;" style="text;html=1;align=center;verticalAlign=middle;whiteSpace=wrap;rounded=0;" parent="1" vertex="1">
          <mxGeometry x="1420.88" y="1026.25" width="296" height="33.75" as="geometry" />
        </mxCell>
        <mxCell id="ZzZaBGDb-GxE34rw_5dA-27" value="&lt;font style=&quot;font-size: 20px;&quot;&gt;DID connection&lt;/font&gt;" style="text;html=1;align=center;verticalAlign=middle;whiteSpace=wrap;rounded=0;" parent="1" vertex="1">
          <mxGeometry x="1102.5" y="1080" width="266.25" height="33.75" as="geometry" />
        </mxCell>
        <mxCell id="ZzZaBGDb-GxE34rw_5dA-28" value="&lt;font style=&quot;font-size: 20px;&quot;&gt;Assertion request&lt;br&gt;&lt;/font&gt;" style="text;html=1;align=center;verticalAlign=middle;whiteSpace=wrap;rounded=0;" parent="1" vertex="1">
          <mxGeometry x="1428.75" y="836.25" width="266.25" height="33.75" as="geometry" />
        </mxCell>
        <mxCell id="ZzZaBGDb-GxE34rw_5dA-29" value="&lt;font style=&quot;font-size: 20px;&quot;&gt;Request for an assertion&lt;br&gt;&lt;/font&gt;" style="text;html=1;align=center;verticalAlign=middle;whiteSpace=wrap;rounded=0;" parent="1" vertex="1">
          <mxGeometry x="1120" y="1160" width="266.25" height="33.75" as="geometry" />
        </mxCell>
        <mxCell id="ZzZaBGDb-GxE34rw_5dA-31" value="&lt;font style=&quot;font-size: 20px;&quot;&gt;Store assertion&lt;br&gt;&lt;/font&gt;" style="text;html=1;align=left;verticalAlign=middle;whiteSpace=wrap;rounded=0;" parent="1" vertex="1">
          <mxGeometry x="1480" y="1300" width="200" height="40" as="geometry" />
        </mxCell>
        <mxCell id="ZzZaBGDb-GxE34rw_5dA-32" value="&lt;font style=&quot;font-size: 20px;&quot;&gt;Prepare presentation&lt;font&gt;&lt;br&gt;&lt;/font&gt;&lt;/font&gt;" style="text;html=1;align=left;verticalAlign=middle;whiteSpace=wrap;rounded=0;" parent="1" vertex="1">
          <mxGeometry x="1480" y="1360" width="200" height="40" as="geometry" />
        </mxCell>
        <mxCell id="ZzZaBGDb-GxE34rw_5dA-33" value="&lt;font style=&quot;font-size: 20px;&quot;&gt;Submit presentation (proof)&lt;br&gt;&lt;/font&gt;" style="text;html=1;align=center;verticalAlign=middle;whiteSpace=wrap;rounded=0;" parent="1" vertex="1">
          <mxGeometry x="1423.75" y="1430" width="266.25" height="33.75" as="geometry" />
        </mxCell>
        <mxCell id="ZzZaBGDb-GxE34rw_5dA-34" value="&lt;font style=&quot;font-size: 20px;&quot;&gt;Provide the service&lt;font&gt;&lt;br&gt;&lt;/font&gt;&lt;/font&gt;" style="text;html=1;align=center;verticalAlign=middle;whiteSpace=wrap;rounded=0;" parent="1" vertex="1">
          <mxGeometry x="1428.75" y="1496.25" width="266.25" height="33.75" as="geometry" />
        </mxCell>
        <mxCell id="ZzZaBGDb-GxE34rw_5dA-36" value="&lt;font style=&quot;font-size: 20px;&quot;&gt;Retrieve and validate&lt;font&gt; each assertion&lt;br&gt;&lt;/font&gt;&lt;/font&gt;" style="text;html=1;align=left;verticalAlign=middle;whiteSpace=wrap;rounded=0;" parent="1" vertex="1">
          <mxGeometry x="1785" y="1463.75" width="200" height="66.25" as="geometry" />
        </mxCell>
        <mxCell id="JAY82V4Paj1b_C0Mo9QA-1" value="&lt;font style=&quot;font-size: 25px;&quot;&gt;Existence&lt;/font&gt;" style="text;html=1;align=center;verticalAlign=middle;whiteSpace=wrap;rounded=1;fillColor=#e3c800;strokeColor=#B09500;strokeWidth=2;fontColor=#000000;" vertex="1" parent="1">
          <mxGeometry x="705" y="1055" width="130" height="40" as="geometry" />
        </mxCell>
        <mxCell id="JAY82V4Paj1b_C0Mo9QA-3" value="" style="rounded=1;whiteSpace=wrap;html=1;fillColor=none;strokeColor=#d6b656;dashed=1;dashPattern=8 8;strokeWidth=2;" vertex="1" parent="1">
          <mxGeometry x="1336.8700000000001" y="1416.88" width="440" height="160" as="geometry" />
        </mxCell>
        <mxCell id="JAY82V4Paj1b_C0Mo9QA-4" value="" style="endArrow=classic;html=1;rounded=0;entryX=0.5;entryY=1;entryDx=0;entryDy=0;fillColor=#e3c800;strokeColor=#B09500;strokeWidth=2;startArrow=diamond;startFill=0;dashed=1;dashPattern=8 8;exitX=0;exitY=0.5;exitDx=0;exitDy=0;" edge="1" parent="1" source="JAY82V4Paj1b_C0Mo9QA-3" target="JAY82V4Paj1b_C0Mo9QA-1">
          <mxGeometry width="50" height="50" relative="1" as="geometry">
            <mxPoint x="530" y="210" as="sourcePoint" />
            <mxPoint x="760" y="553" as="targetPoint" />
          </mxGeometry>
        </mxCell>
        <mxCell id="JAY82V4Paj1b_C0Mo9QA-5" value="" style="rounded=1;whiteSpace=wrap;html=1;fillColor=none;strokeColor=#d6b656;dashed=1;dashPattern=8 8;strokeWidth=2;" vertex="1" parent="1">
          <mxGeometry x="275" y="110" width="495" height="200" as="geometry" />
        </mxCell>
        <mxCell id="JAY82V4Paj1b_C0Mo9QA-8" value="" style="endArrow=classic;html=1;rounded=0;entryX=0.75;entryY=0;entryDx=0;entryDy=0;fillColor=#e3c800;strokeColor=#B09500;strokeWidth=2;startArrow=diamond;startFill=0;dashed=1;dashPattern=8 8;exitX=0.75;exitY=1;exitDx=0;exitDy=0;" edge="1" parent="1" source="JAY82V4Paj1b_C0Mo9QA-5" target="JAY82V4Paj1b_C0Mo9QA-1">
          <mxGeometry width="50" height="50" relative="1" as="geometry">
            <mxPoint x="1075" y="1597.5" as="sourcePoint" />
            <mxPoint x="508" y="1195.5" as="targetPoint" />
          </mxGeometry>
        </mxCell>
        <mxCell id="JAY82V4Paj1b_C0Mo9QA-9" value="&lt;div align=&quot;left&quot;&gt;&lt;font style=&quot;font-size: 20px;&quot;&gt;Credential 1&lt;/font&gt;&lt;/div&gt;&lt;div align=&quot;left&quot;&gt;&lt;font style=&quot;font-size: 20px;&quot;&gt;&lt;br&gt;&lt;/font&gt;&lt;/div&gt;&lt;div align=&quot;left&quot;&gt;&lt;font style=&quot;font-size: 20px;&quot;&gt;&lt;br&gt;&lt;/font&gt;&lt;/div&gt;&lt;div align=&quot;left&quot;&gt;&lt;font style=&quot;font-size: 20px;&quot;&gt;&lt;br&gt;&lt;/font&gt;&lt;/div&gt;&lt;div align=&quot;left&quot;&gt;&lt;font style=&quot;font-size: 20px;&quot;&gt;Credential N&lt;br&gt;&lt;/font&gt;&lt;/div&gt;" style="text;html=1;align=left;verticalAlign=middle;whiteSpace=wrap;rounded=1;fillColor=none;strokeColor=#10739e;strokeWidth=2;dashed=1;dashPattern=8 8;" vertex="1" parent="1">
          <mxGeometry x="289.95" y="567.5" width="280" height="160" as="geometry" />
        </mxCell>
        <mxCell id="JAY82V4Paj1b_C0Mo9QA-10" value="&lt;font style=&quot;font-size: 25px;&quot;&gt;Control&lt;/font&gt;" style="text;html=1;align=center;verticalAlign=middle;whiteSpace=wrap;rounded=1;fillColor=#b1ddf0;strokeColor=#10739e;strokeWidth=2;" vertex="1" parent="1">
          <mxGeometry x="307.76" y="1175" width="130" height="40" as="geometry" />
        </mxCell>
        <mxCell id="JAY82V4Paj1b_C0Mo9QA-11" value="" style="endArrow=classic;html=1;rounded=0;entryX=0.5;entryY=0;entryDx=0;entryDy=0;fillColor=#b1ddf0;strokeColor=#10739e;strokeWidth=2;startArrow=diamond;startFill=0;exitX=0.25;exitY=1;exitDx=0;exitDy=0;dashed=1;dashPattern=8 8;" edge="1" parent="1" source="JAY82V4Paj1b_C0Mo9QA-9" target="JAY82V4Paj1b_C0Mo9QA-10">
          <mxGeometry width="50" height="50" relative="1" as="geometry">
            <mxPoint x="568" y="628" as="sourcePoint" />
            <mxPoint x="760" y="593" as="targetPoint" />
          </mxGeometry>
        </mxCell>
        <mxCell id="JAY82V4Paj1b_C0Mo9QA-12" value="&lt;div align=&quot;left&quot;&gt;&lt;font style=&quot;font-size: 20px;&quot;&gt;Credential 1&lt;/font&gt;&lt;/div&gt;&lt;div align=&quot;left&quot;&gt;&lt;font style=&quot;font-size: 20px;&quot;&gt;&lt;br&gt;&lt;/font&gt;&lt;/div&gt;&lt;div align=&quot;left&quot;&gt;&lt;font style=&quot;font-size: 20px;&quot;&gt;&lt;br&gt;&lt;/font&gt;&lt;/div&gt;&lt;div align=&quot;left&quot;&gt;&lt;font style=&quot;font-size: 20px;&quot;&gt;&lt;br&gt;&lt;/font&gt;&lt;/div&gt;&lt;div align=&quot;left&quot;&gt;&lt;font style=&quot;font-size: 20px;&quot;&gt;Credential N&lt;br&gt;&lt;/font&gt;&lt;/div&gt;" style="text;html=1;align=left;verticalAlign=middle;whiteSpace=wrap;rounded=1;fillColor=none;strokeColor=#10739e;strokeWidth=2;dashed=1;dashPattern=8 8;" vertex="1" parent="1">
          <mxGeometry x="-259.28999999999996" y="567.5" width="274.21" height="160" as="geometry" />
        </mxCell>
        <mxCell id="JAY82V4Paj1b_C0Mo9QA-13" value="" style="endArrow=classic;html=1;rounded=0;entryX=0;entryY=0.5;entryDx=0;entryDy=0;fillColor=#b1ddf0;strokeColor=#10739e;strokeWidth=2;startArrow=diamond;startFill=0;exitX=0.75;exitY=1;exitDx=0;exitDy=0;dashed=1;dashPattern=8 8;" edge="1" parent="1" source="JAY82V4Paj1b_C0Mo9QA-12" target="JAY82V4Paj1b_C0Mo9QA-10">
          <mxGeometry width="50" height="50" relative="1" as="geometry">
            <mxPoint x="170" y="960" as="sourcePoint" />
            <mxPoint x="425" y="1290" as="targetPoint" />
          </mxGeometry>
        </mxCell>
        <mxCell id="JAY82V4Paj1b_C0Mo9QA-16" value="" style="rounded=1;whiteSpace=wrap;html=1;fillColor=none;strokeColor=#10739E;dashed=1;dashPattern=8 8;strokeWidth=2;" vertex="1" parent="1">
          <mxGeometry x="1340" y="1360" width="350" height="50" as="geometry" />
        </mxCell>
        <mxCell id="JAY82V4Paj1b_C0Mo9QA-17" value="" style="endArrow=classic;html=1;rounded=0;entryX=1;entryY=0.75;entryDx=0;entryDy=0;fillColor=#b1ddf0;strokeColor=#10739e;strokeWidth=2;startArrow=diamond;startFill=0;exitX=0;exitY=0.5;exitDx=0;exitDy=0;dashed=1;dashPattern=8 8;" edge="1" parent="1" source="JAY82V4Paj1b_C0Mo9QA-16" target="JAY82V4Paj1b_C0Mo9QA-10">
          <mxGeometry width="50" height="50" relative="1" as="geometry">
            <mxPoint x="600" y="1200" as="sourcePoint" />
            <mxPoint x="600" y="1542" as="targetPoint" />
          </mxGeometry>
        </mxCell>
        <mxCell id="JAY82V4Paj1b_C0Mo9QA-18" value="&lt;div&gt;&lt;font style=&quot;font-size: 25px;&quot;&gt;Consent&lt;/font&gt;&lt;/div&gt;" style="text;html=1;align=center;verticalAlign=middle;whiteSpace=wrap;rounded=1;fillColor=#f8cecc;strokeColor=#b85450;strokeWidth=2;" vertex="1" parent="1">
          <mxGeometry x="1830" y="1295" width="130" height="40" as="geometry" />
        </mxCell>
        <mxCell id="JAY82V4Paj1b_C0Mo9QA-19" value="" style="endArrow=classic;html=1;rounded=0;entryX=0;entryY=0.5;entryDx=0;entryDy=0;fillColor=#f8cecc;strokeColor=#b85450;strokeWidth=2;startArrow=diamond;startFill=0;dashed=1;dashPattern=8 8;exitX=0.943;exitY=0.4;exitDx=0;exitDy=0;exitPerimeter=0;" edge="1" parent="1" target="JAY82V4Paj1b_C0Mo9QA-18" source="JAY82V4Paj1b_C0Mo9QA-16">
          <mxGeometry width="50" height="50" relative="1" as="geometry">
            <mxPoint x="2170" y="1215" as="sourcePoint" />
            <mxPoint x="2532" y="1125" as="targetPoint" />
          </mxGeometry>
        </mxCell>
        <mxCell id="JAY82V4Paj1b_C0Mo9QA-20" value="&lt;font style=&quot;font-size: 25px;&quot;&gt;Persistence&lt;/font&gt;" style="text;html=1;align=center;verticalAlign=middle;whiteSpace=wrap;rounded=1;fillColor=#f8cecc;strokeColor=#b85450;strokeWidth=2;" vertex="1" parent="1">
          <mxGeometry x="917.14" y="717.5" width="157.86" height="40" as="geometry" />
        </mxCell>
        <mxCell id="JAY82V4Paj1b_C0Mo9QA-21" value="" style="endArrow=classic;html=1;rounded=0;entryX=0.5;entryY=1;entryDx=0;entryDy=0;fillColor=#f8cecc;strokeColor=#b85450;strokeWidth=2;startArrow=diamond;startFill=0;dashed=1;dashPattern=8 8;exitX=0.25;exitY=0;exitDx=0;exitDy=0;" edge="1" parent="1" target="JAY82V4Paj1b_C0Mo9QA-20" source="JAY82V4Paj1b_C0Mo9QA-23">
          <mxGeometry width="50" height="50" relative="1" as="geometry">
            <mxPoint x="313" y="1650" as="sourcePoint" />
            <mxPoint x="1270" y="1490" as="targetPoint" />
          </mxGeometry>
        </mxCell>
        <mxCell id="JAY82V4Paj1b_C0Mo9QA-23" value="" style="rounded=1;whiteSpace=wrap;html=1;fillColor=none;strokeColor=#B85450;dashed=1;dashPattern=8 8;strokeWidth=2;" vertex="1" parent="1">
          <mxGeometry x="1050" y="1080" width="380" height="220" as="geometry" />
        </mxCell>
        <mxCell id="JAY82V4Paj1b_C0Mo9QA-24" value="" style="rounded=1;whiteSpace=wrap;html=1;fillColor=none;strokeColor=#B85450;dashed=1;dashPattern=8 8;strokeWidth=2;" vertex="1" parent="1">
          <mxGeometry x="-72.24" y="90" width="502.24" height="240" as="geometry" />
        </mxCell>
        <mxCell id="JAY82V4Paj1b_C0Mo9QA-25" value="" style="endArrow=classic;html=1;rounded=0;entryX=0.25;entryY=0;entryDx=0;entryDy=0;fillColor=#f8cecc;strokeColor=#b85450;strokeWidth=2;startArrow=diamond;startFill=0;dashed=1;dashPattern=8 8;exitX=1;exitY=1;exitDx=0;exitDy=0;" edge="1" parent="1" source="JAY82V4Paj1b_C0Mo9QA-24" target="JAY82V4Paj1b_C0Mo9QA-20">
          <mxGeometry width="50" height="50" relative="1" as="geometry">
            <mxPoint x="1155" y="1090" as="sourcePoint" />
            <mxPoint x="1006" y="768" as="targetPoint" />
          </mxGeometry>
        </mxCell>
        <mxCell id="JAY82V4Paj1b_C0Mo9QA-26" value="&lt;font style=&quot;font-size: 25px;&quot;&gt;Security&lt;/font&gt;" style="text;html=1;align=center;verticalAlign=middle;whiteSpace=wrap;rounded=1;fillColor=#d5e8d4;strokeColor=#82b366;strokeWidth=2;" vertex="1" parent="1">
          <mxGeometry x="1820" y="140" width="130" height="40" as="geometry" />
        </mxCell>
        <mxCell id="JAY82V4Paj1b_C0Mo9QA-27" value="" style="rounded=1;whiteSpace=wrap;html=1;fillColor=none;dashed=1;dashPattern=12 12;strokeColor=#2D7600;strokeWidth=2;fontColor=#ffffff;" vertex="1" parent="1">
          <mxGeometry x="1060" y="320" width="1030" height="230" as="geometry" />
        </mxCell>
        <mxCell id="JAY82V4Paj1b_C0Mo9QA-28" value="" style="endArrow=classic;html=1;rounded=0;entryX=0.5;entryY=1;entryDx=0;entryDy=0;fillColor=#d5e8d4;strokeColor=#82b366;strokeWidth=2;startArrow=diamond;startFill=0;dashed=1;dashPattern=8 8;exitX=0.75;exitY=0;exitDx=0;exitDy=0;" edge="1" parent="1" source="JAY82V4Paj1b_C0Mo9QA-27" target="JAY82V4Paj1b_C0Mo9QA-26">
          <mxGeometry width="50" height="50" relative="1" as="geometry">
            <mxPoint x="80" y="890" as="sourcePoint" />
            <mxPoint x="283" y="996" as="targetPoint" />
          </mxGeometry>
        </mxCell>
        <mxCell id="JAY82V4Paj1b_C0Mo9QA-29" value="&lt;font style=&quot;font-size: 25px;&quot;&gt;Privacy&lt;/font&gt;" style="text;html=1;align=center;verticalAlign=middle;whiteSpace=wrap;rounded=1;fillColor=#dae8fc;strokeColor=#6c8ebf;strokeWidth=2;" vertex="1" parent="1">
          <mxGeometry x="1102.5" y="1590" width="150" height="40" as="geometry" />
        </mxCell>
        <mxCell id="JAY82V4Paj1b_C0Mo9QA-30" value="" style="endArrow=classic;html=1;rounded=0;entryX=1;entryY=0.5;entryDx=0;entryDy=0;fillColor=#dae8fc;strokeColor=#6c8ebf;strokeWidth=2;startArrow=diamond;startFill=0;dashed=1;dashPattern=8 8;exitX=0.25;exitY=1;exitDx=0;exitDy=0;" edge="1" parent="1" target="JAY82V4Paj1b_C0Mo9QA-29">
          <mxGeometry width="50" height="50" relative="1" as="geometry">
            <mxPoint x="1490" y="1464" as="sourcePoint" />
            <mxPoint x="1270" y="1490" as="targetPoint" />
          </mxGeometry>
        </mxCell>
        <mxCell id="JAY82V4Paj1b_C0Mo9QA-31" value="&lt;font style=&quot;font-size: 25px;&quot;&gt;Access&lt;/font&gt;" style="text;html=1;align=center;verticalAlign=middle;whiteSpace=wrap;rounded=1;fillColor=#60a917;strokeColor=#2D7600;strokeWidth=2;fontColor=#ffffff;" vertex="1" parent="1">
          <mxGeometry x="1555" y="1210" width="130" height="40" as="geometry" />
        </mxCell>
        <mxCell id="JAY82V4Paj1b_C0Mo9QA-32" value="" style="rounded=1;whiteSpace=wrap;html=1;dashed=1;dashPattern=8 8;fillColor=none;strokeWidth=2;strokeColor=#2D7600;fontColor=#ffffff;" vertex="1" parent="1">
          <mxGeometry x="1390" y="1020" width="680" height="100" as="geometry" />
        </mxCell>
        <mxCell id="JAY82V4Paj1b_C0Mo9QA-33" value="" style="endArrow=classic;html=1;rounded=0;entryX=0.5;entryY=0;entryDx=0;entryDy=0;fillColor=#60a917;strokeColor=#2D7600;strokeWidth=2;startArrow=diamond;startFill=0;dashed=1;dashPattern=8 8;exitX=0.25;exitY=1;exitDx=0;exitDy=0;" edge="1" parent="1" source="JAY82V4Paj1b_C0Mo9QA-32" target="JAY82V4Paj1b_C0Mo9QA-31">
          <mxGeometry width="50" height="50" relative="1" as="geometry">
            <mxPoint x="1895" y="1180" as="sourcePoint" />
            <mxPoint x="1600" y="1210" as="targetPoint" />
          </mxGeometry>
        </mxCell>
        <mxCell id="JAY82V4Paj1b_C0Mo9QA-35" value="&lt;font style=&quot;font-size: 25px;&quot;&gt;Transparency&lt;/font&gt;" style="text;html=1;align=center;verticalAlign=middle;whiteSpace=wrap;rounded=1;fillColor=#f8cecc;strokeColor=#b85450;strokeWidth=2;" vertex="1" parent="1">
          <mxGeometry x="-72.24" y="1630" width="182.24" height="40" as="geometry" />
        </mxCell>
        <mxCell id="JAY82V4Paj1b_C0Mo9QA-36" value="&lt;font style=&quot;font-size: 25px;&quot;&gt;Portability&lt;/font&gt;" style="text;html=1;align=center;verticalAlign=middle;whiteSpace=wrap;rounded=1;fillColor=#d5e8d4;strokeColor=#82b366;strokeWidth=2;" vertex="1" parent="1">
          <mxGeometry x="100" y="783.13" width="130" height="40" as="geometry" />
        </mxCell>
        <mxCell id="JAY82V4Paj1b_C0Mo9QA-37" value="" style="endArrow=classic;html=1;rounded=0;entryX=0.5;entryY=0;entryDx=0;entryDy=0;fillColor=#d5e8d4;strokeColor=#82b366;strokeWidth=2;startArrow=diamond;startFill=0;dashed=1;dashPattern=8 8;exitX=0.192;exitY=0.391;exitDx=0;exitDy=0;exitPerimeter=0;" edge="1" parent="1" target="JAY82V4Paj1b_C0Mo9QA-36" source="JAY82V4Paj1b_C0Mo9QA-34">
          <mxGeometry width="50" height="50" relative="1" as="geometry">
            <mxPoint x="-70" y="676.88" as="sourcePoint" />
            <mxPoint x="600" y="1181.88" as="targetPoint" />
          </mxGeometry>
        </mxCell>
        <mxCell id="JAY82V4Paj1b_C0Mo9QA-38" value="&lt;font style=&quot;font-size: 25px;&quot;&gt;Interoperability&lt;/font&gt;" style="text;html=1;align=center;verticalAlign=middle;whiteSpace=wrap;rounded=1;fillColor=#76608a;strokeColor=#432D57;strokeWidth=2;fontColor=#ffffff;" vertex="1" parent="1">
          <mxGeometry x="-120" y="1050" width="200" height="40" as="geometry" />
        </mxCell>
        <mxCell id="JAY82V4Paj1b_C0Mo9QA-39" value="" style="endArrow=classic;html=1;rounded=0;entryX=0.25;entryY=0;entryDx=0;entryDy=0;fillColor=#b1ddf0;strokeColor=#76608A;strokeWidth=2;startArrow=diamond;startFill=0;exitX=0.25;exitY=1;exitDx=0;exitDy=0;dashed=1;dashPattern=8 8;" edge="1" parent="1" source="e10Qv0GbZiTSholtEu76-15" target="JAY82V4Paj1b_C0Mo9QA-38">
          <mxGeometry width="50" height="50" relative="1" as="geometry">
            <mxPoint x="-44" y="738" as="sourcePoint" />
            <mxPoint x="318" y="1205" as="targetPoint" />
          </mxGeometry>
        </mxCell>
        <mxCell id="JAY82V4Paj1b_C0Mo9QA-41" value="&lt;font style=&quot;font-size: 25px;&quot;&gt;Cost&lt;/font&gt;" style="text;html=1;align=center;verticalAlign=middle;whiteSpace=wrap;rounded=1;fillColor=#f8cecc;strokeColor=#b85450;strokeWidth=2;" vertex="1" parent="1">
          <mxGeometry x="150" y="1630" width="182.24" height="40" as="geometry" />
        </mxCell>
        <mxCell id="JAY82V4Paj1b_C0Mo9QA-42" value="&lt;font style=&quot;font-size: 25px;&quot;&gt;Standard&lt;/font&gt;" style="text;html=1;align=center;verticalAlign=middle;whiteSpace=wrap;rounded=1;fillColor=#f8cecc;strokeColor=#b85450;strokeWidth=2;" vertex="1" parent="1">
          <mxGeometry x="375.52" y="1630" width="182.24" height="40" as="geometry" />
        </mxCell>
        <mxCell id="JAY82V4Paj1b_C0Mo9QA-43" value="&lt;font style=&quot;font-size: 25px;&quot;&gt;Autonomy&lt;/font&gt;" style="text;html=1;align=center;verticalAlign=middle;whiteSpace=wrap;rounded=1;fillColor=#b1ddf0;strokeColor=#10739e;strokeWidth=2;" vertex="1" parent="1">
          <mxGeometry x="525" y="950" width="130" height="40" as="geometry" />
        </mxCell>
        <mxCell id="JAY82V4Paj1b_C0Mo9QA-44" value="" style="endArrow=classic;html=1;rounded=0;entryX=0.5;entryY=0;entryDx=0;entryDy=0;fillColor=#b1ddf0;strokeColor=#10739e;strokeWidth=2;startArrow=diamond;startFill=0;exitX=0.783;exitY=1.009;exitDx=0;exitDy=0;dashed=1;dashPattern=8 8;exitPerimeter=0;" edge="1" parent="1" source="e10Qv0GbZiTSholtEu76-23" target="JAY82V4Paj1b_C0Mo9QA-43">
          <mxGeometry width="50" height="50" relative="1" as="geometry">
            <mxPoint x="370" y="738" as="sourcePoint" />
            <mxPoint x="383" y="1185" as="targetPoint" />
          </mxGeometry>
        </mxCell>
        <mxCell id="JAY82V4Paj1b_C0Mo9QA-45" value="&lt;div&gt;&lt;font style=&quot;font-size: 25px;&quot;&gt;Verifiability&lt;/font&gt;&lt;/div&gt;" style="text;html=1;align=center;verticalAlign=middle;whiteSpace=wrap;rounded=1;fillColor=#d5e8d4;strokeColor=#82b366;strokeWidth=2;" vertex="1" parent="1">
          <mxGeometry x="1850" y="910" width="150" height="40" as="geometry" />
        </mxCell>
        <mxCell id="JAY82V4Paj1b_C0Mo9QA-46" value="" style="endArrow=classic;html=1;rounded=0;entryX=0.5;entryY=1;entryDx=0;entryDy=0;fillColor=#d5e8d4;strokeColor=#82b366;strokeWidth=2;startArrow=diamond;startFill=0;dashed=1;dashPattern=8 8;exitX=1;exitY=0;exitDx=0;exitDy=0;" edge="1" parent="1" target="JAY82V4Paj1b_C0Mo9QA-45">
          <mxGeometry width="50" height="50" relative="1" as="geometry">
            <mxPoint x="1690" y="1430" as="sourcePoint" />
            <mxPoint x="1960" y="1346" as="targetPoint" />
          </mxGeometry>
        </mxCell>
        <mxCell id="JAY82V4Paj1b_C0Mo9QA-47" value="" style="endArrow=classic;html=1;rounded=0;entryX=0;entryY=1;entryDx=0;entryDy=0;fillColor=#d5e8d4;strokeColor=#82b366;strokeWidth=2;startArrow=diamond;startFill=0;dashed=1;dashPattern=8 8;exitX=0.73;exitY=0.227;exitDx=0;exitDy=0;exitPerimeter=0;" edge="1" parent="1" target="JAY82V4Paj1b_C0Mo9QA-45">
          <mxGeometry width="50" height="50" relative="1" as="geometry">
            <mxPoint x="1330" y="1130" as="sourcePoint" />
            <mxPoint x="1955" y="993" as="targetPoint" />
          </mxGeometry>
        </mxCell>
        <mxCell id="JAY82V4Paj1b_C0Mo9QA-48" value="" style="endArrow=classic;html=1;rounded=0;entryX=0;entryY=0;entryDx=0;entryDy=0;fillColor=#d5e8d4;strokeColor=#82b366;strokeWidth=2;startArrow=diamond;startFill=0;dashed=1;dashPattern=8 8;exitX=0.75;exitY=1;exitDx=0;exitDy=0;" edge="1" parent="1" target="JAY82V4Paj1b_C0Mo9QA-45">
          <mxGeometry width="50" height="50" relative="1" as="geometry">
            <mxPoint x="1618" y="641" as="sourcePoint" />
            <mxPoint x="1965" y="1003" as="targetPoint" />
          </mxGeometry>
        </mxCell>
      </root>
    </mxGraphModel>
  </diagram>
</mxfile>
